# xmcd
#
# Track frame offsets:
#	150
#	14105
#	31490
#	53624
#	72804
#	92027
#	108858
#	128628
#	146410
#	168263
#	189151
#	206066
#	222133
#	235305
#	248386
#	268199
#	284247
#	299750
#
# Disc length: 4156 seconds
#
# Revision: 0
# Processed by: cddbd v1.5.1PL2 Copyright (c) Steve Scherf et al.
# Submitted via: dBpowerAMP V4.0
#
DISCID=10103a12
DTITLE=Various Artist - Rocky Blues Volume Two
DYEAR=2005
DGENRE=Blues
TTITLE0=Complete Disrespect - Lost Dogs
TTITLE1=Be Good To Me - Mark Vine
TTITLE2=Hitchhiker - Fyshwicks
TTITLE3=Down To The Station - Dom Diblasio
TTITLE4=Come Morning - Pink and White Bridge
TTITLE5=Truly - Marcia Flude
TTITLE6=Stairway Of Gold - Jeff Hayman
TTITLE7=Tamworth - Billy Pilgrim
TTITLE8=Litigation Blues - No Drama
TTITLE9=Long Distance Dream - Richie Pavledis
TTITLE10=Take It Away - Spectacle
TTITLE11=S.O.S. - Aiden Varro
TTITLE12=National Radiation - Mandrake Root
TTITLE13=Beach Baby - Freedom
TTITLE14=Edge Of Time - Peter Woodhouse
TTITLE15=Down At Midnites - Bluetongue
TTITLE16=Dr. Said - Head Honcho!!
TTITLE17=Sun Do Shine - Papa Gav
EXTD=
EXTT0=
EXTT1=
EXTT2=
EXTT3=
EXTT4=
EXTT5=
EXTT6=
EXTT7=
EXTT8=
EXTT9=
EXTT10=
EXTT11=
EXTT12=
EXTT13=
EXTT14=
EXTT15=
EXTT16=
EXTT17=
PLAYORDER=
